<svg width="56" height="22" viewBox="0 0 56 22" fill="none" xmlns="http://www.w3.org/2000/svg">
<rect x="0.832031" y="0.859375" width="54.5794" height="20.5816" rx="10.2908" fill="#D9FCEA"/>
<path d="M21.5303 7.15039H20.0889V12.6035H20.0186L16.2529 7.15039H14.9561V15.1504H16.4053V9.70117H16.4717L20.2412 15.1504H21.5303V7.15039ZM24.1094 15.1504H29.3438V13.9355H25.5586V11.752H29.043V10.5371H25.5586V8.36523H29.3125V7.15039H24.1094V15.1504ZM33.4746 15.1504H34.9043L36.5098 9.53711H36.5723L38.1738 15.1504H39.6035L41.8613 7.15039H40.3027L38.8613 13.0332H38.791L37.248 7.15039H35.8301L34.291 13.0293H34.2168L32.7754 7.15039H31.2168L33.4746 15.1504Z" fill="#39DA8A"/>
</svg>
